<svg width="48" height="49" viewBox="0 0 48 49" fill="none" xmlns="http://www.w3.org/2000/svg">
    <path fill-rule="evenodd" clip-rule="evenodd" d="M23.993 0.5C10.7623 0.5 0 11.2653 0 24.4998C0 29.7484 1.69264 34.616 4.57001 38.567L1.57959 47.4838L10.8044 44.5356C14.5986 47.047 19.1264 48.5 24.007 48.5C37.2377 48.5 48 37.7343 48 24.5002C48 11.2657 37.2377 0.500397 24.007 0.500397H23.993V0.5ZM17.2928 12.6908C16.8275 11.5763 16.4748 11.5341 15.7698 11.5054C15.5297 11.4915 15.2622 11.4775 14.9656 11.4775C14.0484 11.4775 13.0895 11.7455 12.511 12.338C11.806 13.0576 10.0568 14.7364 10.0568 18.1792C10.0568 21.622 12.5676 24.9517 12.9059 25.4176C13.2586 25.8827 17.8008 33.0503 24.8533 35.9715C30.3684 38.2572 32.0049 38.0453 33.2601 37.7773C35.0937 37.3823 37.393 36.0272 37.9714 34.3911C38.5499 32.7541 38.5498 31.3572 38.3802 31.0609C38.2111 30.7647 37.7453 30.5958 37.0403 30.2426C36.3353 29.8898 32.9074 28.1967 32.2585 27.9709C31.6235 27.7312 31.0173 27.816 30.538 28.4933C29.8608 29.4386 29.198 30.3983 28.6618 30.9765C28.2386 31.4281 27.5471 31.4846 26.9691 31.2445C26.1932 30.9203 24.0213 30.1578 21.341 27.7734C19.2674 25.9253 17.857 23.6258 17.4481 22.9345C17.0389 22.2293 17.4059 21.8195 17.7299 21.4388C18.0826 21.0012 18.421 20.691 18.7737 20.2817C19.1264 19.8727 19.3239 19.6609 19.5496 19.1811C19.7897 18.7156 19.6201 18.2357 19.4509 17.8829C19.2817 17.5301 17.8713 14.0873 17.2928 12.6908Z" fill="#9300FC"/>
</svg>
